<svg width="29" height="28" viewBox="0 0 29 28" fill="none" xmlns="http://www.w3.org/2000/svg">
<g clip-path="url(#clip0_546_8511)">
<path d="M23.9352 9.77686C23.9352 9.63541 23.9305 9.49636 23.9258 9.35731V1.40971L21.764 3.60819C19.994 1.40491 17.3012 0 14.2851 0C11.1462 0 8.35669 1.52239 6.59375 3.8791L10.1385 7.51845C10.4854 6.86634 10.9787 6.30533 11.5734 5.88098C12.1917 5.3895 13.0697 4.98913 14.2827 4.98913C14.429 4.98913 14.5423 5.00591 14.6249 5.03947C16.1283 5.15935 17.431 6.00325 18.198 7.22596L15.6893 9.77447C18.8682 9.76248 22.4602 9.75529 23.9352 9.77686Z" fill="#1C3AA9"/>
<path d="M14.2281 0C14.0889 0 13.952 0.00479493 13.8151 0.00958986H5.98926L8.1534 2.20567C5.9869 4.00616 4.60156 6.74167 4.60156 9.80563C4.60156 12.9943 6.10018 15.8281 8.42008 17.619L12.0026 14.018C11.3607 13.6656 10.8084 13.1645 10.3907 12.5603C9.9069 11.9322 9.51278 11.0403 9.51278 9.80803C9.51278 9.65939 9.5293 9.54431 9.56234 9.4604C9.68034 7.93321 10.5111 6.60981 11.7147 5.83064L14.2234 8.37914C14.2139 5.14736 14.2045 1.50081 14.2281 0Z" fill="#4285F4"/>
<path d="M4.60449 9.80566C4.60449 9.94711 4.60921 10.0862 4.61393 10.2252V18.1728L6.77572 15.9767C8.54574 18.1776 11.2385 19.5825 14.2546 19.5825C17.3935 19.5825 20.183 18.0601 21.946 15.7034L18.4012 12.0641C18.0543 12.7162 17.561 13.2772 16.9663 13.7015C16.348 14.193 15.4701 14.5934 14.257 14.5934C14.1107 14.5934 13.9974 14.5766 13.9148 14.5431C12.4115 14.4232 11.1087 13.5793 10.3417 12.3566L12.8504 9.80806C9.67147 9.82005 6.07951 9.82724 4.60449 9.80566Z" fill="#ABABAB"/>
<path d="M6.23283 23.3801C5.99683 23.3801 5.78678 23.4257 5.60034 23.5168C5.4139 23.6055 5.25578 23.7326 5.12598 23.8956C4.99854 24.061 4.89941 24.26 4.83097 24.4949C4.76489 24.7275 4.73185 24.9888 4.73185 25.2765V26.106C4.73185 26.3961 4.76489 26.6575 4.83097 26.89C4.89941 27.1226 4.99617 27.3216 5.12362 27.487C5.2487 27.6524 5.4021 27.7771 5.5791 27.8658C5.75846 27.9545 5.95907 27.9976 6.18091 27.9976C6.40983 27.9976 6.61043 27.9641 6.78271 27.897C6.95736 27.8298 7.10368 27.7315 7.21932 27.6045C7.33732 27.475 7.427 27.3192 7.49072 27.1346C7.55444 26.9524 7.59456 26.7438 7.60636 26.5112H7.04468C7.03052 26.691 7.00692 26.8445 6.97152 26.9715C6.93612 27.0962 6.88656 27.2017 6.82048 27.2832C6.75675 27.3647 6.66943 27.4223 6.56559 27.463C6.46175 27.499 6.33431 27.5182 6.18327 27.5182C6.02043 27.5182 5.88355 27.4822 5.77026 27.4103C5.65698 27.3359 5.56494 27.2353 5.49414 27.1082C5.4257 26.9811 5.37378 26.8301 5.3431 26.6599C5.31242 26.4896 5.29826 26.305 5.29826 26.106V25.2693C5.29826 25.0584 5.31714 24.8642 5.35254 24.6915C5.3903 24.5189 5.4493 24.3727 5.52482 24.2504C5.6027 24.1281 5.69946 24.0346 5.81746 23.9699C5.93547 23.9028 6.07471 23.8692 6.23755 23.8692C6.37443 23.8692 6.49007 23.8908 6.58683 23.9315C6.68359 23.9699 6.76619 24.0322 6.82992 24.1161C6.89364 24.1977 6.9432 24.3032 6.9786 24.4302C7.014 24.5573 7.03524 24.7107 7.0494 24.8881H7.61108C7.60164 24.646 7.56388 24.4302 7.4978 24.2432C7.43408 24.0562 7.34204 23.898 7.2264 23.7709C7.11076 23.6438 6.96916 23.5456 6.80396 23.4808C6.63639 23.4137 6.44759 23.3801 6.23283 23.3801ZM19.9611 23.3801C19.7251 23.3801 19.5151 23.4257 19.3286 23.5168C19.1422 23.6055 18.984 23.7326 18.8542 23.8956C18.7268 24.061 18.6277 24.26 18.5592 24.4949C18.4932 24.7275 18.4601 24.9888 18.4601 25.2765V26.106C18.4601 26.3961 18.4932 26.6575 18.5592 26.89C18.6277 27.1226 18.7268 27.3216 18.8519 27.487C18.977 27.6524 19.1304 27.7771 19.3074 27.8658C19.4867 27.9545 19.6873 27.9976 19.9092 27.9976C20.1381 27.9976 20.3387 27.9641 20.511 27.897C20.6856 27.8298 20.8319 27.7315 20.95 27.6045C21.068 27.475 21.1576 27.3192 21.2214 27.1346C21.2851 26.9524 21.3252 26.7438 21.337 26.5112H20.7753C20.7611 26.691 20.7375 26.8445 20.7021 26.9715C20.6667 27.0962 20.6172 27.2017 20.5511 27.2832C20.485 27.3647 20.4024 27.4223 20.2962 27.463C20.1924 27.499 20.0649 27.5182 19.9139 27.5182C19.7511 27.5182 19.6142 27.4822 19.5009 27.4103C19.3876 27.3359 19.2956 27.2353 19.2248 27.1082C19.1563 26.9811 19.1044 26.8301 19.0737 26.6599C19.0431 26.4896 19.0289 26.305 19.0289 26.106V25.2693C19.0289 25.0584 19.0478 24.8642 19.0832 24.6915C19.1209 24.5189 19.1799 24.3727 19.2555 24.2504C19.331 24.1281 19.4301 24.0346 19.5481 23.9699C19.6661 23.9028 19.8053 23.8692 19.9682 23.8692C20.1051 23.8692 20.2207 23.8908 20.3175 23.9315C20.4142 23.9699 20.4968 24.0322 20.5605 24.1161C20.6266 24.1977 20.6762 24.3032 20.7092 24.4302C20.7423 24.5573 20.7659 24.7107 20.7777 24.8881H21.3394C21.3299 24.646 21.2922 24.4302 21.2261 24.2432C21.16 24.0562 21.0703 23.898 20.9547 23.7709C20.839 23.6438 20.6974 23.5456 20.5322 23.4808C20.3647 23.4137 20.1759 23.3801 19.9611 23.3801ZM9.43538 23.4425L8.00993 27.9401H8.58105L8.92562 26.7677H10.4219L10.7712 27.9401H11.3423L9.91447 23.4425H9.43538ZM11.9441 23.4425V27.9401H12.5011V26.1804H13.3554C13.5678 26.1804 13.7566 26.1492 13.9218 26.0917C14.087 26.0293 14.2239 25.9406 14.3348 25.8255C14.4481 25.7105 14.533 25.569 14.5897 25.3988C14.6487 25.2286 14.677 25.0344 14.677 24.8186C14.677 24.6196 14.6463 24.435 14.5897 24.2696C14.533 24.1018 14.4481 23.9555 14.3372 23.8332C14.2262 23.711 14.087 23.6151 13.9194 23.5456C13.7542 23.4784 13.5678 23.4425 13.353 23.4425H11.9441ZM15.1042 23.4425V23.9315H16.2653V27.9401H16.8223V23.9291H17.9858V23.4401H15.1042V23.4425ZM22.0875 23.4425V27.9401H22.6444V25.8615H24.4263V27.9401H24.9856V23.4425H24.4263V25.3748H22.6444V23.4425H22.0875ZM27.0931 23.4425L25.6676 27.9401H26.2388L26.5833 26.7677H28.0796L28.4289 27.9401H29L27.5722 23.4425H27.0931ZM12.5011 23.9291H13.3554C13.4923 23.9291 13.6056 23.9531 13.7023 24.0035C13.7991 24.0538 13.8793 24.1185 13.9383 24.2001C14.002 24.2816 14.0469 24.3775 14.0752 24.4878C14.1059 24.5956 14.12 24.7059 14.12 24.821C14.12 24.9481 14.1059 25.0655 14.0752 25.1734C14.0469 25.2789 14.002 25.37 13.9383 25.4491C13.877 25.5259 13.7991 25.5858 13.7023 25.629C13.6079 25.6721 13.4923 25.6937 13.3554 25.6937H12.5011V23.9291ZM9.67375 24.2336L10.2779 26.2787H9.07194L9.67375 24.2336ZM27.3315 24.2336L27.9356 26.2787H26.7273L27.3315 24.2336ZM1.14225 24.5357C1.00301 24.5357 0.88265 24.5717 0.781169 24.6436C0.682048 24.7155 0.599447 24.8138 0.531006 24.9361L0.521566 24.5956H0V27.9377H0.538086V25.5474C0.587646 25.406 0.660807 25.2933 0.752848 25.2118C0.847249 25.1303 0.967611 25.0871 1.11393 25.0871C1.16113 25.0871 1.20125 25.0895 1.23901 25.0943C1.27441 25.0967 1.31453 25.1015 1.35702 25.1087L1.35465 24.5765C1.34757 24.5717 1.33341 24.5693 1.31453 24.5645C1.29801 24.5573 1.27913 24.5525 1.26025 24.5501C1.24137 24.5477 1.21777 24.5429 1.19653 24.5405C1.17765 24.5381 1.15877 24.5357 1.14225 24.5357ZM2.95239 24.5357C2.79663 24.5357 2.64559 24.5645 2.49927 24.6196C2.35295 24.6748 2.22314 24.7659 2.10986 24.8953C1.99894 25.02 1.90926 25.1854 1.83846 25.3892C1.77002 25.5906 1.73462 25.8399 1.73462 26.1324V26.5088C1.73462 26.763 1.76294 26.9859 1.82194 27.1729C1.88094 27.3599 1.9659 27.5158 2.07446 27.6404C2.18538 27.7627 2.31991 27.8514 2.47803 27.9113C2.63615 27.9713 2.81315 28 3.00903 28C3.15063 28 3.27808 27.9857 3.389 27.9569C3.50228 27.9281 3.60376 27.8898 3.69108 27.8466C3.7784 27.7987 3.85392 27.7459 3.91528 27.686C3.979 27.626 4.03092 27.5637 4.07577 27.5014L3.79492 27.1561C3.75008 27.2113 3.70288 27.264 3.65096 27.3096C3.6014 27.3551 3.54476 27.3959 3.4834 27.4294C3.42204 27.463 3.35596 27.4894 3.2828 27.5062C3.20964 27.5253 3.12703 27.5349 3.03735 27.5349C2.78719 27.5349 2.59603 27.4534 2.46387 27.2904C2.33171 27.1274 2.26563 26.8684 2.26563 26.5088V26.4321H4.10173V26.1132C4.10173 25.8591 4.08049 25.6337 4.038 25.4372C3.99552 25.2406 3.92708 25.0775 3.83504 24.9433C3.74064 24.809 3.62264 24.7083 3.47632 24.6412C3.33472 24.5693 3.15772 24.5357 2.95239 24.5357ZM2.95239 25.0056C3.07039 25.0056 3.16716 25.0272 3.24504 25.0703C3.32292 25.1135 3.38192 25.1734 3.42676 25.2525C3.47396 25.3317 3.507 25.4252 3.52588 25.5331C3.54712 25.6409 3.56128 25.7584 3.56836 25.8879V25.9622H2.27507C2.28215 25.7752 2.30575 25.6194 2.34115 25.4947C2.37655 25.3724 2.42611 25.2741 2.48511 25.2022C2.54647 25.1279 2.61491 25.0775 2.69515 25.0488C2.77303 25.02 2.85799 25.0056 2.95239 25.0056Z" fill="#A6A6A6"/>
</g>
<defs>
<clipPath id="clip0_546_8511">
<rect width="29" height="28" fill="white"/>
</clipPath>
</defs>
</svg>
